<?xml version="1.0" encoding="UTF-8"?>
<svg xmlns="http://www.w3.org/2000/svg" xmlns:xlink="http://www.w3.org/1999/xlink" viewBox="0 0 50 50" width="50px" height="50px">
<g id="surface128972190">
<path style=" stroke:none;fill-rule:nonzero;fill:rgb(48.235294%,50.588238%,52.941179%);fill-opacity:1;" d="M 25.785156 5.019531 C 25.589844 5.003906 25.390625 5.003906 25.191406 5.023438 C 24.394531 5.109375 23.679688 5.503906 23.179688 6.128906 C 22.140625 7.414062 22.347656 9.308594 23.636719 10.347656 L 26.9375 13 L 9.960938 13 C 8.308594 13 6.960938 14.347656 6.960938 16 C 6.960938 17.652344 8.308594 19 9.960938 19 L 17.398438 19 L 3.15625 30.511719 C 2.507812 31.03125 2.105469 31.777344 2.019531 32.605469 C 1.929688 33.429688 2.167969 34.242188 2.691406 34.890625 C 3.214844 35.539062 3.957031 35.941406 4.785156 36.027344 C 5.613281 36.117188 6.425781 35.878906 7.074219 35.355469 L 14 29.757812 C 14.578125 37.699219 21.964844 44 30.960938 44 C 40.335938 44 47.960938 37.160156 47.960938 28.75 C 47.960938 23.554688 45.050781 18.769531 40.175781 15.941406 L 27.398438 5.667969 C 26.929688 5.292969 26.367188 5.070312 25.785156 5.019531 Z M 30.960938 20 C 35.921875 20 39.960938 23.363281 39.960938 27.5 C 39.960938 31.636719 35.921875 35 30.960938 35 C 26 35 21.960938 31.636719 21.960938 27.5 C 21.960938 23.363281 26 20 30.960938 20 Z M 30.960938 22 C 27.648438 22 24.960938 24.238281 24.960938 27 C 24.960938 29.761719 27.648438 32 30.960938 32 C 34.273438 32 36.960938 29.761719 36.960938 27 C 36.960938 24.238281 34.273438 22 30.960938 22 Z M 30.960938 22 "/>
</g>
</svg>
