<?xml version="1.0" encoding="UTF-8"?>
<svg xmlns="http://www.w3.org/2000/svg" xmlns:xlink="http://www.w3.org/1999/xlink" viewBox="0 0 50 50" width="50px" height="50px">
<g id="surface128963398">
<path style=" stroke:none;fill-rule:nonzero;fill:rgb(48.235294%,50.588238%,52.941179%);fill-opacity:1;" d="M 6.042969 15.988281 L 6.042969 20.21875 C 5.636719 20.117188 5.148438 20.078125 4.703125 20.078125 C 1.84375 20.078125 0 21.871094 0 24.632812 C 0 27.503906 1.738281 28.992188 5.082031 28.996094 C 6.195312 28.996094 7.230469 28.894531 8.632812 28.628906 L 8.632812 15.988281 Z M 10.246094 16.003906 L 10.246094 18.785156 L 12.980469 18.785156 L 12.980469 16.003906 Z M 10.246094 20 L 10.246094 25.613281 C 10.246094 27.972656 10.125 28.871094 9.730469 29.644531 C 9.359375 30.402344 8.773438 30.894531 7.566406 31.457031 L 10.105469 32.652344 C 11.3125 32.054688 11.898438 31.511719 12.34375 30.648438 C 12.816406 29.753906 12.980469 28.710938 12.980469 26.550781 L 12.980469 20 Z M 45.566406 20 C 42.757812 20 41.003906 21.761719 41 24.589844 C 41 27.308594 42.699219 29 45.457031 29 C 48.246094 29 50 27.242188 50 24.433594 C 50 21.691406 48.320312 20 45.566406 20 Z M 18.082031 20.082031 C 16.875 20.082031 15.765625 20.328125 14.605469 20.886719 L 14.613281 22.976562 C 15.636719 22.429688 16.726562 22.152344 17.695312 22.152344 C 18.355469 22.152344 18.597656 22.328125 18.597656 22.820312 L 18.597656 23.414062 C 15.378906 23.691406 14.066406 24.566406 14.066406 26.460938 C 14.066406 28.210938 15.054688 29 17.253906 29 C 18.34375 29 19.824219 28.875 21 28.699219 L 21 23.21875 C 21 22.097656 20.929688 21.570312 20.707031 21.167969 C 20.316406 20.449219 19.433594 20.078125 18.082031 20.078125 Z M 26.917969 20.082031 C 25.570312 20.082031 24.238281 20.269531 22.621094 20.695312 L 22.621094 28.890625 L 25.355469 28.890625 L 25.355469 22.453125 C 25.90625 22.292969 26.242188 22.261719 26.613281 22.261719 C 27.589844 22.261719 28.046875 22.648438 28.046875 23.6875 L 28.046875 28.890625 L 30.683594 28.890625 L 30.683594 23.578125 C 30.683594 22.226562 30.503906 21.589844 29.933594 21.011719 C 29.332031 20.398438 28.320312 20.082031 26.917969 20.082031 Z M 37.785156 20.097656 C 33.792969 20.097656 31.535156 21.835938 31.535156 24.914062 C 31.535156 27.394531 33.058594 28.960938 35.457031 28.960938 C 36.164062 28.960938 36.699219 28.855469 37.234375 28.589844 L 37.234375 28.640625 C 37.234375 30.367188 36.46875 31.085938 34.675781 31.085938 C 33.660156 31.085938 32.703125 30.859375 31.746094 30.367188 L 31.746094 32.871094 C 32.703125 33.242188 33.625 33.398438 34.691406 33.398438 C 36.789062 33.398438 38.261719 32.746094 39.117188 31.425781 C 39.699219 30.527344 39.898438 29.4375 39.898438 27.113281 L 39.898438 26.375 C 39.878906 26.007812 39.878906 25.636719 39.863281 25.265625 L 39.84375 23.789062 L 39.808594 22.644531 L 39.808594 22.359375 C 40.359375 22.414062 39.691406 22.296875 40.417969 22.433594 L 41.355469 20.480469 C 40.042969 20.21875 38.957031 20.09375 37.785156 20.09375 Z M 45.527344 22.160156 C 46.582031 22.160156 47.1875 23.027344 47.1875 24.496094 C 47.1875 25.980469 46.566406 26.835938 45.507812 26.835938 C 44.4375 26.835938 43.808594 25.980469 43.808594 24.496094 C 43.808594 23.011719 44.433594 22.160156 45.527344 22.160156 Z M 4.972656 22.261719 C 5.308594 22.261719 5.722656 22.296875 6.042969 22.402344 L 6.042969 26.75 C 5.652344 26.800781 5.257812 26.820312 4.953125 26.820312 C 3.550781 26.820312 2.789062 26.023438 2.789062 24.582031 C 2.789062 23.101562 3.585938 22.261719 4.972656 22.261719 Z M 36.894531 22.277344 L 37.179688 22.277344 L 37.179688 22.484375 L 37.199219 23.382812 L 37.214844 24.632812 C 37.214844 25 37.234375 25.355469 37.234375 25.671875 L 37.234375 26.605469 C 36.878906 26.710938 36.578125 26.78125 36.207031 26.78125 C 34.996094 26.78125 34.320312 26.003906 34.320312 24.652344 C 34.320312 23.703125 34.65625 23.035156 35.3125 22.664062 C 35.738281 22.398438 36.363281 22.261719 36.894531 22.277344 Z M 18.714844 25.175781 L 18.714844 26.984375 C 18.207031 27.070312 17.847656 27.105469 17.457031 27.105469 C 16.738281 27.105469 16.414062 26.859375 16.414062 26.335938 C 16.414062 25.636719 16.980469 25.351562 18.714844 25.179688 Z M 18.714844 25.175781 "/>
</g>
</svg>
