<?xml version="1.0" encoding="UTF-8"?>
<svg xmlns="http://www.w3.org/2000/svg" xmlns:xlink="http://www.w3.org/1999/xlink" viewBox="0 0 50 50" width="50px" height="50px">
<g id="surface128968286">
<path style=" stroke:none;fill-rule:nonzero;fill:rgb(48.235294%,50.588238%,52.941179%);fill-opacity:1;" d="M 2.609375 14.628906 C 2.195312 14.664062 1.832031 14.996094 2.351562 15.558594 C 3.34375 16.117188 1.367188 16.53125 1.945312 16.910156 C 2.128906 17.304688 1.929688 17.746094 1.394531 17.816406 C 0.605469 17.882812 0.679688 18.960938 1.449219 18.398438 C 2.304688 18.125 1.59375 18.503906 1.191406 18.582031 C 0.285156 18.847656 -0.332031 19.753906 0.195312 20.582031 C 0.699219 21.71875 0.832031 22.992188 1.222656 24.179688 C 1.871094 26 2.816406 27.738281 4.042969 29.238281 C 4.625 30.085938 5.476562 30.691406 6.28125 31.320312 C 7.066406 31.832031 7.945312 32.34375 8.84375 32.601562 C 10.433594 33.1875 12.144531 33.242188 13.820312 33.371094 C 14.839844 33.371094 15.863281 33.300781 16.871094 33.117188 C 17.773438 33.21875 18.425781 32.441406 19.246094 32.851562 C 19.742188 32.410156 20.464844 32.601562 20.960938 32.285156 C 21.328125 31.035156 19.699219 32.035156 19.183594 31.425781 C 18.625 32.082031 18.15625 31.355469 17.476562 31.558594 C 16.320312 31.617188 17.5625 31.039062 17.535156 30.511719 C 16.921875 30.042969 16.230469 31.15625 15.835938 31.457031 C 14.871094 31.28125 13.910156 31.007812 13.023438 30.589844 C 12.011719 30.0625 11.019531 29.433594 10.285156 28.546875 C 9.519531 27.636719 8.671875 26.71875 8.320312 25.554688 C 7.582031 23.628906 7.628906 21.542969 7.4375 19.523438 C 7.507812 18.152344 8.953125 19.667969 9.578125 19.175781 C 9.367188 18.464844 8.226562 18.238281 7.59375 17.957031 C 6.988281 17.914062 6.765625 17.367188 6.117188 17.324219 C 6.148438 16.5625 4.929688 16.980469 4.484375 16.441406 C 4.921875 15.3125 3.039062 16.46875 3.183594 15.492188 C 3.492188 14.859375 3.023438 14.59375 2.609375 14.628906 Z M 2.617188 14.722656 C 2.714844 14.699219 2.828125 14.71875 2.941406 14.808594 C 3.484375 15.539062 1.945312 14.726562 2.480469 15.425781 C 2.152344 15.273438 2.320312 14.796875 2.617188 14.726562 Z M 41.914062 15.085938 C 41.847656 15.085938 41.671875 15.175781 41.386719 15.363281 C 41.039062 15.589844 40.667969 15.765625 40.285156 15.898438 C 40.042969 15.980469 39.921875 16.09375 39.921875 16.246094 C 39.921875 16.347656 40.003906 16.425781 40.175781 16.484375 C 40.535156 16.601562 40.773438 16.765625 40.886719 16.980469 C 40.96875 17.144531 41.011719 17.4375 41.011719 17.859375 L 41.011719 24.613281 C 41.011719 25.207031 40.867188 25.539062 40.585938 25.609375 C 40.269531 25.691406 40.113281 25.816406 40.113281 25.972656 C 40.113281 26.042969 40.117188 26.09375 40.128906 26.128906 C 40.152344 26.234375 40.320312 26.273438 40.632812 26.246094 C 41.859375 26.148438 42.730469 26.125 43.246094 26.167969 C 43.410156 26.1875 43.511719 26.179688 43.550781 26.148438 C 43.585938 26.121094 43.605469 26.046875 43.605469 25.929688 C 43.605469 25.78125 43.484375 25.6875 43.242188 25.65625 C 42.851562 25.617188 42.601562 25.558594 42.492188 25.488281 C 42.339844 25.386719 42.257812 25.167969 42.246094 24.839844 C 42.234375 24.511719 42.230469 24.257812 42.230469 24.082031 C 42.230469 23.835938 42.355469 23.644531 42.597656 23.507812 C 42.8125 23.355469 42.960938 23.277344 43.050781 23.277344 C 43.121094 23.277344 43.183594 23.320312 43.230469 23.402344 C 43.796875 24.363281 44.488281 25.277344 45.300781 26.152344 C 45.421875 26.285156 45.632812 26.320312 45.921875 26.261719 C 46.503906 26.214844 46.972656 26.191406 47.335938 26.183594 C 47.574219 26.175781 47.699219 26.078125 47.699219 25.898438 C 47.699219 25.753906 47.667969 25.664062 47.613281 25.632812 C 47.554688 25.601562 47.410156 25.582031 47.171875 25.582031 C 46.851562 25.582031 46.507812 25.425781 46.144531 25.113281 C 45.570312 24.613281 44.960938 23.871094 44.320312 22.894531 C 44.144531 22.621094 44.058594 22.445312 44.058594 22.375 C 44.058594 22.328125 44.078125 22.289062 44.117188 22.261719 C 44.671875 21.703125 45.199219 21.3125 45.6875 21.09375 C 46.039062 20.925781 46.410156 20.835938 46.808594 20.820312 C 47.0625 20.804688 47.1875 20.710938 47.1875 20.535156 C 47.1875 20.347656 47.105469 20.253906 46.949219 20.25 C 46.457031 20.25 45.964844 20.246094 45.472656 20.242188 C 44.757812 20.234375 44.21875 20.207031 43.847656 20.15625 C 43.683594 20.128906 43.589844 20.207031 43.578125 20.390625 C 43.566406 20.570312 43.652344 20.667969 43.832031 20.691406 C 44.25 20.746094 44.457031 20.84375 44.457031 20.984375 C 44.457031 21.058594 44.394531 21.164062 44.273438 21.292969 C 43.648438 21.832031 43.125 22.269531 42.695312 22.605469 C 42.535156 22.738281 42.417969 22.808594 42.339844 22.808594 C 42.269531 22.808594 42.230469 22.738281 42.230469 22.605469 L 42.21875 17.769531 C 42.21875 17.132812 42.21875 16.628906 42.226562 16.253906 C 42.230469 15.707031 42.234375 15.449219 42.234375 15.488281 C 42.234375 15.21875 42.125 15.085938 41.914062 15.085938 Z M 24.269531 15.140625 C 24.1875 15.140625 23.988281 15.230469 23.679688 15.417969 C 23.304688 15.65625 22.941406 15.832031 22.589844 15.941406 C 22.359375 16.019531 22.242188 16.136719 22.242188 16.292969 C 22.242188 16.394531 22.324219 16.472656 22.480469 16.53125 C 22.785156 16.640625 23 16.792969 23.117188 16.988281 C 23.238281 17.183594 23.300781 17.492188 23.300781 17.910156 L 23.300781 24.902344 C 23.300781 25.324219 23.160156 25.578125 22.878906 25.664062 C 22.601562 25.75 22.460938 25.851562 22.460938 25.976562 C 22.460938 26.117188 22.484375 26.203125 22.53125 26.234375 C 22.582031 26.261719 22.710938 26.265625 22.921875 26.246094 C 23.976562 26.15625 24.855469 26.148438 25.566406 26.21875 C 25.796875 26.242188 25.914062 26.152344 25.914062 25.945312 C 25.914062 25.796875 25.800781 25.707031 25.566406 25.683594 C 25.191406 25.636719 24.925781 25.542969 24.769531 25.402344 C 24.613281 25.257812 24.535156 25.03125 24.535156 24.71875 L 24.507812 17.816406 C 24.5 17.320312 24.507812 16.816406 24.519531 16.308594 C 24.542969 15.769531 24.550781 15.511719 24.550781 15.535156 C 24.550781 15.269531 24.457031 15.140625 24.265625 15.140625 Z M 13.988281 15.953125 C 13.929688 15.964844 13.890625 16.015625 13.867188 16.113281 C 13.8125 16.273438 13.890625 16.402344 14.097656 16.492188 C 14.425781 16.644531 14.652344 16.8125 14.773438 16.992188 C 14.894531 17.175781 14.957031 17.4375 14.957031 17.777344 L 14.957031 24.394531 C 14.957031 25.226562 14.703125 25.667969 14.199219 25.726562 C 13.976562 25.746094 13.867188 25.824219 13.867188 25.957031 C 13.867188 26.167969 13.976562 26.257812 14.199219 26.226562 C 14.992188 26.121094 15.996094 26.117188 17.21875 26.214844 C 17.640625 26.25 17.867188 26.183594 17.898438 26.011719 C 17.929688 25.820312 17.820312 25.707031 17.566406 25.679688 C 17.074219 25.621094 16.75 25.550781 16.601562 25.472656 C 16.410156 25.378906 16.316406 25.203125 16.316406 24.945312 L 16.316406 21.46875 C 16.316406 21.402344 16.359375 21.367188 16.453125 21.367188 C 17.273438 21.367188 17.867188 21.390625 18.230469 21.433594 C 18.589844 21.476562 18.839844 21.824219 18.976562 22.46875 C 19.011719 22.636719 19.101562 22.710938 19.246094 22.699219 C 19.417969 22.6875 19.503906 22.617188 19.5 22.484375 C 19.449219 21.359375 19.496094 20.445312 19.640625 19.746094 C 19.664062 19.621094 19.589844 19.542969 19.414062 19.507812 C 19.207031 19.460938 19.089844 19.539062 19.054688 19.746094 C 18.996094 20.125 18.9375 20.355469 18.878906 20.445312 C 18.820312 20.535156 18.703125 20.589844 18.535156 20.613281 C 17.664062 20.667969 17 20.699219 16.539062 20.707031 C 16.390625 20.710938 16.316406 20.652344 16.316406 20.535156 L 16.316406 17.035156 C 16.316406 16.914062 16.339844 16.835938 16.390625 16.800781 C 16.476562 16.742188 16.652344 16.71875 16.917969 16.71875 C 18.089844 16.71875 18.820312 16.738281 19.113281 16.785156 C 19.386719 16.820312 19.605469 16.929688 19.769531 17.105469 C 19.910156 17.253906 20.058594 17.515625 20.210938 17.890625 C 20.269531 18.03125 20.371094 18.101562 20.511719 18.101562 C 20.65625 18.101562 20.726562 18.019531 20.726562 17.859375 C 20.75 17.046875 20.800781 16.464844 20.890625 16.121094 C 20.894531 16.101562 20.898438 16.082031 20.898438 16.054688 C 20.898438 15.976562 20.726562 15.949219 20.382812 15.96875 C 19.347656 16.03125 18.117188 16.0625 16.695312 16.0625 C 15.488281 16.0625 14.722656 16.035156 14.398438 15.984375 C 14.175781 15.949219 14.039062 15.9375 13.988281 15.953125 Z M 3.789062 16.136719 C 3.929688 16.164062 3.976562 16.25 3.597656 16.296875 L 3.445312 16.289062 C 3.425781 16.132812 3.652344 16.109375 3.789062 16.136719 Z M 3.636719 16.667969 C 3.914062 16.789062 4.472656 16.84375 4.566406 17.144531 C 4.003906 16.855469 4.679688 17.5 4.207031 17.484375 C 3.953125 17.488281 3.484375 16.945312 3.636719 16.667969 Z M 3.496094 17.121094 C 4.132812 17.605469 3.144531 17.121094 2.742188 17.425781 C 2.109375 17.488281 3.4375 17.070312 3.496094 17.121094 Z M 5.175781 17.410156 C 5.257812 17.433594 5.257812 17.511719 5.121094 17.671875 C 5.613281 18.261719 5.234375 18.0625 4.898438 17.644531 C 5.191406 17.847656 4.964844 18.722656 4.511719 18.121094 C 4.195312 17.523438 3.992188 17.929688 4.332031 18.335938 C 3.996094 17.707031 3.03125 17.976562 2.328125 18.214844 C 1.875 18.167969 3.511719 17.828125 3.6875 17.746094 C 3.960938 17.753906 4.933594 17.34375 5.175781 17.410156 Z M 7.148438 18.074219 C 7.347656 18.074219 7.546875 18.082031 7.746094 18.097656 C 8.058594 18.464844 7.503906 19.085938 6.929688 19.125 C 6.230469 19.390625 5.515625 19.453125 4.867188 19.539062 C 4.03125 19.433594 3.433594 20.183594 2.570312 20.277344 C 2.800781 19.851562 2.382812 20.132812 1.945312 20.109375 C 2.167969 20.972656 0.398438 19.882812 1.445312 19.675781 C 0.660156 19.398438 0.652344 20.21875 0.730469 20.6875 L 0.679688 20.6875 C -0.0351562 19.765625 0.761719 19.390625 1.664062 19.269531 C 1.492188 19.695312 1.914062 19.832031 2.316406 19.910156 C 2.96875 19.730469 1.886719 19.613281 2.378906 19.441406 C 2.652344 19.394531 1.515625 19.171875 2.460938 19.042969 C 3.433594 18.882812 4.304688 18.5 5.265625 18.300781 C 5.917969 18.171875 6.546875 18.082031 7.148438 18.074219 Z M 6.933594 18.292969 C 6.847656 18.269531 6.648438 18.320312 6.546875 18.589844 C 6.621094 18.757812 6.65625 18.539062 6.644531 18.480469 C 6.992188 18.429688 7.019531 18.320312 6.933594 18.292969 Z M 4.914062 18.652344 C 4.636719 18.640625 4.175781 18.703125 4.015625 18.894531 C 4.222656 18.992188 4.449219 18.636719 4.742188 18.859375 C 5.296875 18.753906 5.195312 18.667969 4.914062 18.652344 Z M 8.914062 18.707031 C 9.050781 18.683594 9.484375 18.84375 9.332031 19.117188 C 9.226562 19.144531 9.246094 18.988281 9.167969 18.960938 C 8.851562 18.800781 8.828125 18.71875 8.914062 18.707031 Z M 3.488281 19.082031 C 3.414062 19.078125 3.355469 19.113281 3.347656 19.203125 L 3.488281 19.332031 C 4.050781 19.378906 3.707031 19.082031 3.488281 19.082031 Z M 3.171875 19.339844 C 3.066406 19.324219 2.972656 19.378906 2.917969 19.578125 C 3.015625 19.550781 3.171875 19.609375 3.265625 19.679688 C 3.859375 20.085938 3.484375 19.382812 3.171875 19.339844 Z M 6.980469 19.433594 C 7.503906 19.332031 7.351562 20.679688 7.183594 21.089844 C 7.5 20.875 7.4375 22.089844 7.335938 22.542969 C 7.507812 22.3125 7.578125 22.917969 7.386719 23.34375 C 7.402344 23.273438 7.804688 23.210938 7.507812 23.71875 C 7.28125 23.222656 7.183594 24.726562 7.328125 24.050781 C 7.726562 23.414062 7.625 24.019531 7.742188 24.300781 C 7.820312 24.886719 8.082031 25.425781 8.160156 25.941406 C 8.527344 26.3125 8.003906 26.0625 8.007812 26.5625 C 8.125 26.417969 8.613281 26.765625 8.609375 27.285156 C 8.648438 26.460938 8.695312 27.09375 9.097656 27.308594 C 9.433594 27.847656 9.683594 28.351562 10.183594 28.796875 C 10.574219 29.246094 10.160156 28.929688 10.328125 29.207031 C 10.742188 29.941406 11.703125 30.367188 12.53125 30.558594 C 12.894531 31.03125 13.441406 31.503906 14.183594 31.289062 C 13.554688 31.675781 15.945312 31.78125 15.136719 32 C 14.714844 32.226562 14.316406 31.851562 13.910156 31.871094 C 13.339844 31.675781 12.4375 31.074219 11.824219 31.484375 C 10.980469 32.011719 12.257812 30.894531 11.574219 31.394531 C 10.878906 32.226562 11.101562 30.875 10.425781 31.28125 C 10.386719 31.148438 9.824219 31.113281 10.25 30.886719 C 9.867188 30.863281 10.105469 30.839844 10.242188 30.535156 C 10.082031 30.5 9.167969 30.53125 8.808594 30.230469 C 8.386719 29.683594 8.882812 29.90625 9.324219 29.988281 C 8.617188 30.109375 9.566406 30.515625 10.039062 30.292969 C 9.828125 30.199219 9.585938 29.742188 9.023438 29.34375 C 8.238281 28.871094 7.59375 28.644531 6.78125 28.269531 C 5.902344 27.746094 6.976562 28.082031 7.285156 28.359375 C 8.160156 28.746094 7.816406 27.8125 7.308594 27.574219 C 6.75 27.59375 6.605469 26.953125 6.160156 26.992188 C 6.863281 27.101562 7.355469 26.808594 6.570312 26.097656 C 5.820312 25.226562 6.878906 26.753906 6.445312 26.558594 C 6.246094 26.296875 6.394531 25.921875 5.765625 25.789062 C 5.757812 26.027344 5.675781 26.402344 5.539062 25.894531 C 5.363281 25.925781 5.160156 26.117188 5.019531 25.597656 C 5.152344 25.003906 4.429688 24.867188 4.320312 24.488281 C 4.945312 24.886719 5.226562 24.574219 4.785156 24.136719 C 4.476562 23.605469 4.4375 24.023438 4.265625 24.097656 C 3.652344 24.722656 4.210938 23.015625 3.9375 23.507812 C 3.664062 23.5 3.820312 23.808594 3.828125 24.191406 C 2.929688 23.972656 4.042969 24.664062 4.304688 25.046875 C 3.894531 24.617188 3.964844 25.367188 3.621094 25.011719 C 3.503906 24.695312 3.488281 24.199219 2.921875 24.109375 C 3.566406 23.886719 2.535156 23.433594 2.621094 23.40625 C 2.992188 23.070312 3.039062 22.609375 3.484375 23.332031 C 2.917969 23.285156 3.46875 24.265625 3.609375 23.972656 C 3.585938 23.472656 3.839844 22.945312 2.984375 22.714844 C 2.734375 23.054688 2.300781 22.050781 2.804688 22.261719 C 2.738281 21.601562 3.582031 21.992188 3.527344 21.703125 C 3.964844 21.511719 3 20.894531 3.519531 20.648438 C 3.917969 20.890625 4.949219 20.269531 4.257812 20.183594 C 4.691406 20.175781 5.039062 20.367188 5.085938 19.929688 C 5.433594 20.003906 6.382812 20.304688 5.523438 19.832031 C 5.796875 19.691406 6.378906 19.578125 6.71875 19.574219 C 6.820312 19.492188 6.90625 19.449219 6.984375 19.433594 Z M 36.621094 19.992188 C 35.957031 19.992188 35.425781 20.140625 35.027344 20.441406 C 34.601562 20.75 34.386719 21.179688 34.386719 21.738281 C 34.386719 22.191406 34.527344 22.550781 34.800781 22.820312 C 35.050781 23.074219 35.550781 23.367188 36.304688 23.703125 C 36.824219 23.929688 37.175781 24.125 37.355469 24.296875 C 37.519531 24.445312 37.605469 24.632812 37.605469 24.855469 C 37.605469 25.359375 37.242188 25.613281 36.515625 25.613281 C 35.652344 25.613281 35.027344 25.273438 34.644531 24.601562 C 34.554688 24.449219 34.449219 24.382812 34.324219 24.398438 C 34.199219 24.410156 34.140625 24.550781 34.140625 24.824219 C 34.140625 25.457031 34.160156 25.8125 34.203125 25.882812 C 34.269531 25.960938 34.511719 26.042969 34.929688 26.136719 C 35.410156 26.238281 35.898438 26.292969 36.382812 26.292969 C 37.109375 26.292969 37.679688 26.128906 38.101562 25.808594 C 38.523438 25.488281 38.730469 25.054688 38.730469 24.507812 C 38.730469 24.015625 38.578125 23.621094 38.269531 23.324219 C 38.03125 23.097656 37.582031 22.839844 36.925781 22.558594 C 36.292969 22.285156 35.898438 22.082031 35.726562 21.953125 C 35.535156 21.804688 35.441406 21.605469 35.441406 21.351562 C 35.441406 20.898438 35.792969 20.671875 36.5 20.671875 C 37.121094 20.671875 37.636719 21.003906 38.046875 21.667969 C 38.101562 21.761719 38.214844 21.789062 38.386719 21.753906 C 38.542969 21.714844 38.617188 21.660156 38.601562 21.59375 C 38.472656 21.046875 38.386719 20.628906 38.347656 20.339844 C 38.328125 20.242188 38.136719 20.160156 37.765625 20.09375 C 37.421875 20.027344 37.039062 19.992188 36.621094 19.992188 Z M 30.1875 20.023438 C 29.578125 20.023438 28.945312 20.199219 28.285156 20.542969 C 27.65625 20.871094 27.34375 21.160156 27.34375 21.410156 C 27.34375 21.804688 27.554688 21.980469 27.980469 21.941406 C 28.347656 21.910156 28.632812 21.695312 28.832031 21.300781 C 29.03125 20.902344 29.242188 20.703125 29.464844 20.703125 C 30.242188 20.703125 30.613281 21.128906 30.582031 21.972656 L 30.570312 22.46875 C 30.5625 22.683594 30.386719 22.824219 30.035156 22.894531 C 27.996094 23.28125 26.976562 23.917969 26.976562 24.808594 C 26.976562 25.277344 27.128906 25.648438 27.4375 25.921875 C 27.71875 26.167969 28.074219 26.292969 28.496094 26.292969 C 28.945312 26.292969 29.390625 26.1875 29.835938 25.976562 C 30.277344 25.765625 30.523438 25.660156 30.570312 25.660156 C 30.628906 25.660156 30.738281 25.757812 30.894531 25.953125 C 31.046875 26.148438 31.226562 26.246094 31.425781 26.246094 C 31.664062 26.246094 31.980469 26.136719 32.375 25.917969 C 32.765625 25.699219 32.964844 25.535156 32.964844 25.429688 C 32.964844 25.226562 32.890625 25.125 32.738281 25.125 C 32.710938 25.125 32.621094 25.136719 32.460938 25.164062 C 32.300781 25.191406 32.195312 25.203125 32.136719 25.203125 C 31.847656 25.203125 31.707031 25.035156 31.710938 24.703125 L 31.742188 21.515625 C 31.753906 20.519531 31.234375 20.023438 30.1875 20.023438 Z M 6.925781 20.261719 C 6.792969 20.296875 6.589844 20.996094 6.730469 21.246094 C 7.042969 21.742188 7.355469 20.023438 7.097656 20.601562 C 6.960938 21.335938 6.820312 21.03125 7.019531 20.484375 C 7.003906 20.308594 6.96875 20.246094 6.925781 20.261719 Z M 2.535156 20.910156 C 2.585938 20.90625 2.671875 20.910156 2.808594 20.925781 C 3.5 20.902344 3.277344 21.3125 2.882812 21.339844 C 2.875 21.363281 2.519531 21.253906 2.667969 21.15625 C 3.621094 21.277344 2.1875 20.925781 2.535156 20.910156 Z M 4.285156 21.152344 C 4.339844 21.28125 4.4375 21.527344 4.367188 21.632812 C 4.558594 21.828125 5.226562 22.171875 4.691406 21.699219 C 5.03125 21.632812 4.644531 21.523438 4.445312 21.359375 C 4.207031 21.007812 4.226562 21.023438 4.285156 21.152344 Z M 2.019531 21.167969 C 2.175781 21.164062 2.339844 21.246094 2.035156 21.429688 C 1.707031 21.269531 1.863281 21.175781 2.019531 21.167969 Z M 6.460938 21.625 C 6.449219 21.609375 6.445312 21.625 6.457031 21.691406 C 6.574219 21.957031 6.488281 21.667969 6.460938 21.625 Z M 4.09375 21.886719 C 4.1875 22.023438 4.433594 21.960938 4.550781 22.089844 C 5.597656 22.527344 4.457031 21.8125 4.09375 21.886719 Z M 3.929688 21.972656 C 3.878906 21.980469 3.886719 22.050781 4.003906 22.210938 C 4.074219 22.371094 4.246094 22.386719 4.394531 22.425781 C 5.515625 22.941406 4.152344 21.921875 3.929688 21.972656 Z M 1.992188 22.058594 C 2.164062 22.085938 2.371094 22.179688 2.144531 22.265625 L 2.050781 22.230469 C 1.6875 22.066406 1.824219 22.03125 1.992188 22.058594 Z M 3.585938 22.195312 C 3.53125 22.199219 3.578125 22.273438 3.816406 22.488281 L 3.96875 22.644531 C 4.75 22.859375 3.738281 22.1875 3.585938 22.195312 Z M 3.476562 22.402344 C 3.4375 22.402344 3.800781 22.789062 3.632812 22.785156 C 3.054688 22.359375 3.289062 22.660156 3.617188 22.984375 C 3.972656 23.511719 4.265625 22.671875 3.6875 22.566406 C 3.550781 22.449219 3.492188 22.40625 3.476562 22.402344 Z M 5.933594 22.957031 C 5.929688 22.980469 5.925781 23.0625 5.941406 23.238281 C 6.039062 23.324219 5.957031 22.882812 5.933594 22.957031 Z M 6.445312 23 C 6.324219 23 6.230469 23.886719 6.535156 24.070312 C 6.664062 24.433594 6.800781 24.285156 6.84375 23.871094 C 6.546875 23.878906 6.96875 23.222656 6.566406 23.351562 C 6.535156 23.097656 6.488281 23 6.445312 23 Z M 7.308594 23.019531 C 7.285156 22.96875 7.230469 23.078125 7.210938 23.441406 L 7.210938 23.546875 C 7.320312 23.277344 7.332031 23.070312 7.308594 23.019531 Z M 1.46875 23.050781 C 1.546875 23.03125 2 23.941406 1.9375 24.195312 C 1.660156 24.097656 1.675781 23.664062 1.546875 23.4375 C 1.457031 23.164062 1.441406 23.054688 1.46875 23.050781 Z M 4.757812 23.09375 C 4.6875 23.296875 4.914062 23.960938 5.050781 24.191406 C 5.40625 24.730469 5.246094 23.894531 5.632812 24.433594 C 5.421875 23.960938 5.734375 24.21875 5.6875 24.015625 C 5.589844 23.8125 4.640625 22.730469 5.070312 23.546875 C 5.464844 24.519531 4.828125 23.425781 4.757812 23.09375 Z M 1.285156 23.253906 C 1.390625 23.320312 1.671875 23.78125 1.726562 24.039062 C 2.167969 24.574219 1.992188 24.867188 2.457031 25.527344 C 1.863281 25.152344 1.75 24.257812 1.371094 23.683594 C 1.21875 23.3125 1.21875 23.210938 1.285156 23.253906 Z M 30.371094 23.371094 C 30.421875 23.375 30.460938 23.390625 30.492188 23.410156 C 30.558594 23.449219 30.589844 23.535156 30.582031 23.664062 L 30.566406 24.933594 C 30.566406 25.09375 30.410156 25.230469 30.089844 25.34375 C 29.816406 25.441406 29.550781 25.488281 29.292969 25.488281 C 28.648438 25.488281 28.324219 25.195312 28.324219 24.601562 C 28.324219 24.011719 28.949219 23.609375 30.191406 23.386719 C 30.257812 23.375 30.320312 23.371094 30.371094 23.371094 Z M 4.554688 24.933594 C 4.796875 25.007812 4.652344 25.785156 5.007812 25.894531 C 5.8125 26.9375 4.453125 25.921875 4.003906 25.824219 C 4.058594 25.820312 3.601562 25.691406 3.800781 25.648438 C 3.652344 25.496094 3.328125 24.957031 4.070312 25.320312 C 4.660156 25.613281 4.707031 25.414062 4.429688 24.945312 C 4.480469 24.921875 4.523438 24.921875 4.558594 24.933594 Z M 1.851562 25.082031 C 1.875 24.984375 2.28125 25.640625 2.355469 25.914062 C 2.578125 26.628906 3.28125 27.039062 3.351562 27.507812 C 4.128906 27.957031 3.730469 28.6875 4.382812 28.894531 C 4.671875 28.746094 4.703125 29.773438 5.316406 29.558594 C 4.976562 29.722656 5.460938 29.910156 5.632812 30.210938 C 6.023438 30.15625 6.875 31.066406 6.027344 30.753906 C 5.667969 30.679688 5.425781 30.304688 5.171875 30.0625 C 4.421875 29.585938 3.933594 28.789062 3.523438 28.023438 C 2.992188 27.21875 2.351562 26.417969 1.988281 25.480469 C 1.882812 25.234375 1.847656 25.117188 1.855469 25.085938 Z M 7.820312 25.6875 C 7.78125 25.707031 7.777344 25.828125 7.894531 26.085938 L 7.964844 26.199219 C 8.058594 25.890625 7.886719 25.652344 7.820312 25.6875 Z M 5.117188 26.605469 C 5.339844 26.652344 5.671875 26.773438 5.804688 26.796875 C 5.84375 26.957031 5.050781 26.933594 5.742188 27.242188 C 5.339844 27.234375 5.21875 27.203125 5.792969 27.554688 C 5.566406 27.738281 6.253906 27.882812 6.019531 28.15625 C 6.714844 28.699219 5.890625 28.292969 5.59375 28.070312 C 5.417969 27.949219 4.699219 27.707031 4.8125 27.546875 C 5.660156 27.992188 5.027344 27.53125 4.652344 27.234375 C 5.335938 27.402344 4.109375 26.730469 4.757812 26.90625 C 4.949219 26.953125 4.464844 26.507812 5.101562 26.832031 C 4.789062 26.578125 4.898438 26.558594 5.117188 26.605469 Z M 9.363281 28.308594 C 9.273438 28.28125 9.359375 28.617188 9.554688 28.820312 C 9.96875 29.3125 9.652344 28.539062 9.511719 28.480469 C 9.441406 28.371094 9.390625 28.320312 9.363281 28.308594 Z M 5.710938 28.792969 C 5.941406 28.796875 6.316406 28.902344 6.550781 29.023438 C 7.570312 29.253906 6.332031 29.527344 5.925781 29.210938 L 5.753906 29.175781 C 5.394531 28.894531 5.476562 28.792969 5.710938 28.792969 Z M 6.929688 28.902344 C 7.011719 28.882812 7.398438 29.042969 7.5625 29.195312 C 8.050781 29.261719 8.054688 29.484375 7.511719 29.347656 C 7.417969 29.285156 7.261719 29.289062 7.210938 29.167969 C 6.933594 28.988281 6.875 28.914062 6.925781 28.902344 Z M 7.578125 28.910156 C 7.730469 28.90625 7.984375 28.953125 8.066406 29.070312 C 9.136719 29.242188 7.996094 29.316406 7.679688 29.035156 C 7.367188 28.960938 7.425781 28.914062 7.578125 28.910156 Z M 7.578125 29.511719 C 7.695312 29.488281 8.449219 29.800781 7.90625 29.730469 L 7.746094 29.679688 C 7.574219 29.570312 7.539062 29.523438 7.578125 29.511719 Z M 11.183594 29.695312 C 11.214844 29.707031 11.25 29.738281 11.273438 29.800781 C 10.992188 29.792969 11.082031 29.660156 11.183594 29.695312 Z M 7.582031 29.988281 C 7.800781 30.007812 8.648438 30.472656 7.898438 30.261719 L 7.785156 30.214844 L 7.652344 30.15625 C 7.503906 30.023438 7.507812 29.980469 7.582031 29.988281 Z M 9.398438 31.207031 C 9.5 31.1875 10.335938 31.265625 9.628906 31.257812 C 9.414062 31.226562 9.367188 31.210938 9.398438 31.207031 Z M 7.183594 31.328125 C 7.242188 31.339844 7.339844 31.371094 7.476562 31.421875 C 8.375 31.976562 9.40625 32.265625 10.359375 32.691406 C 11.203125 32.804688 12.085938 33.027344 12.914062 32.847656 C 13.605469 33.191406 14.320312 32.757812 15.011719 33.070312 C 13.484375 33.367188 11.910156 33.042969 10.386719 32.832031 C 9.425781 32.710938 8.570312 32.3125 7.691406 31.933594 C 7.566406 31.871094 7.445312 31.796875 7.324219 31.726562 C 6.722656 31.390625 6.796875 31.324219 7.382812 31.652344 C 7.589844 31.816406 9.058594 32.417969 8.359375 32.023438 C 8.09375 31.957031 6.761719 31.234375 7.183594 31.328125 Z M 12.75 31.59375 C 12.820312 31.636719 12.820312 31.78125 12.816406 31.964844 C 12.359375 32.472656 12.632812 31.753906 12.347656 32.03125 C 12.085938 32.242188 12.148438 31.90625 12.289062 31.824219 C 12.546875 31.605469 12.679688 31.550781 12.75 31.59375 Z M 16.582031 31.753906 C 16.996094 31.792969 17.464844 31.886719 17.734375 31.890625 C 17.570312 32.238281 16.550781 31.921875 16.101562 32.011719 L 15.910156 32 L 15.789062 31.980469 C 15.824219 31.746094 16.171875 31.71875 16.582031 31.753906 Z M 20.113281 31.867188 C 21.175781 31.867188 20.183594 32.023438 19.695312 32.019531 C 19.144531 31.890625 19.949219 31.894531 20.113281 31.867188 Z M 13.71875 32.003906 C 13.804688 31.996094 13.832031 32.0625 13.589844 32.21875 L 13.503906 32.246094 C 13.492188 32.101562 13.632812 32.015625 13.71875 32.003906 Z M 13.316406 32.066406 C 13.332031 32.09375 13.296875 32.160156 13.160156 32.304688 C 12.765625 32.332031 13.269531 31.996094 13.316406 32.066406 Z M 9.480469 32.175781 C 9.578125 32.152344 10.613281 32.453125 10.742188 32.421875 C 11.796875 32.816406 10.117188 32.550781 9.765625 32.332031 C 9.523438 32.230469 9.449219 32.1875 9.480469 32.175781 Z M 14.570312 32.230469 C 14.574219 32.253906 14.519531 32.316406 14.363281 32.429688 L 14.234375 32.511719 C 14.050781 32.386719 14.5625 32.148438 14.570312 32.230469 Z M 14.570312 32.230469 "/>
</g>
</svg>
